<svg xmlns="http://www.w3.org/2000/svg" width="100" height="100"><path fill-rule="evenodd" fill="#FFF" d="M93.636 74.341a2.07 2.07 0 01-.599.672l-4.748 4.752 11.019 11.027a2.087 2.087 0 010 2.95l-5.64 5.644a2.086 2.086 0 01-1.474.612 2.085 2.085 0 01-1.473-.612L79.703 88.359l-4.992 4.997a2.094 2.094 0 01-.719.467 50.464 50.464 0 01-4.104 2.002h.899a2.085 2.085 0 010 4.171l-20.939-.001-.026.001h-.011l-.025-.001H29.117a2.085 2.085 0 010-4.17h.772a49.56 49.56 0 01-4.939-2.496C13.429 86.673 5.175 75.877 1.708 62.928c-3.466-12.947-1.712-26.429 4.94-37.959C13.299 13.439 24.087 5.178 37.025 1.71 49.962-1.76 63.432-.004 74.953 6.652c11.405 6.59 19.625 17.263 23.148 30.054 3.518 12.776 1.933 26.142-4.465 37.635zm-19.32 13.511l3.914-3.917a2.084 2.084 0 012.946 0l11.018 11.028 2.694-2.696L83.87 81.239a2.083 2.083 0 010-2.949l3.913-3.916-18.397-4.933 4.93 18.411zM72.87 10.264c-10.558-6.1-22.905-7.707-34.767-4.526-11.862 3.18-21.751 10.751-27.846 21.316C4.161 37.62 2.555 49.977 5.733 61.849c3.179 11.871 10.743 21.769 21.3 27.869 13.332 7.704 29.965 8.08 43.757 1.079l-6.363-23.765a2.088 2.088 0 01.54-2.015 2.079 2.079 0 012.012-.538l23.789 6.378c10.99-21.529 3.18-48.414-17.898-60.593zm15.858 31.488a2.086 2.086 0 01-2.552-1.475c-3.456-12.911-13.618-23.08-26.518-26.54a2.086 2.086 0 011.078-4.028c14.334 3.844 25.625 15.142 29.465 29.487a2.088 2.088 0 01-1.473 2.556zM56.704 57.849c-1.167 1.92-3.64 2.88-7.419 2.88-3.84 0-6.234-1.029-7.184-3.089-.435-.951-.653-2.832-.653-5.644V40.143c0-.555.267-.832.802-.832h2.612c.455 0 .682.277.682.832v12.744c0 1.564.208 2.634.623 3.208.554.792 1.673 1.188 3.355 1.188 1.82 0 2.988-.377 3.502-1.129.435-.613.653-1.682.653-3.207V40.143c0-.555.267-.832.801-.832h2.404c.475 0 .713.278.713.832v11.793c0 1.584-.059 2.812-.178 3.684-.119.871-.356 1.615-.713 2.229zM52.916 12.57c-.053 0-.105-.003-.159-.007a39.883 39.883 0 00-1.561-.084 2.085 2.085 0 01-2.01-2.157 2.08 2.08 0 012.154-2.011c.587.019 1.169.052 1.729.093a2.085 2.085 0 01-.153 4.166zM41.719 88.799a2.086 2.086 0 01-2.552 1.474C24.833 86.428 13.543 75.129 9.702 60.785a2.084 2.084 0 114.025-1.08c3.457 12.91 13.618 23.08 26.519 26.539a2.087 2.087 0 011.473 2.555zm-7.013-37.857c.624.781.935 1.876.935 3.282 0 2.812-.999 4.615-2.997 5.406-1.149.456-3.167.684-6.056.684h-3.295c-1.068 0-1.855-.248-2.359-.743-.505-.495-.757-1.297-.757-2.406V42.61c0-2.18 1.039-3.268 3.117-3.268h3.472c1.128 0 2.207.06 3.236.178 1.702.177 2.958.678 3.769 1.5.812.821 1.217 1.996 1.217 3.521 0 1.285-.247 2.316-.742 3.089-.494.771-1.276 1.337-2.345 1.693 1.247.297 2.182.836 2.805 1.619zm-4.274-7.338c-.287-.347-.708-.608-1.262-.788-.435-.118-1.088-.178-1.959-.178h-2.047c-.594 0-.891.358-.891 1.069v4.16h2.731c1.266 0 2.107-.09 2.522-.268.891-.376 1.336-1.149 1.336-2.317 0-.773-.144-1.332-.43-1.678zm-.49 7.828c-.514-.198-1.435-.298-2.761-.298h-2.908v4.634c0 .397.084.685.252.863.168.177.46.267.876.267h2.196c1.128 0 1.94-.1 2.434-.297.95-.376 1.425-1.298 1.425-2.764 0-1.188-.505-1.989-1.514-2.405zm17.204 35.986c.508.038 1.033.066 1.561.084a2.085 2.085 0 01-.07 4.17l-.072-.001a43.354 43.354 0 01-1.731-.094 2.085 2.085 0 01.312-4.159zm15.04-48.048c.218-.079 1.326-.119 3.324-.119.474 0 .87.278 1.187.832 1.9 3.15 3.305 5.605 4.215 7.368.752-1.446 2.167-3.882 4.244-7.308.337-.595.743-.892 1.217-.892 1.702 0 2.701.05 2.998.15.238.098.356.267.357.504 0 .219-.119.535-.356.951L72.841 51.49v7.962c0 .277-.079.495-.237.653a.8.8 0 01-.594.238h-2.493c-.535 0-.802-.297-.802-.891h.001V51.61l-6.53-10.695c-.258-.436-.386-.763-.386-.981 0-.256.128-.446.386-.564z"/></svg>