<svg xmlns="http://www.w3.org/2000/svg" width="120" height="101"><path fill-rule="evenodd" fill="#FFF" d="M109.953 75.231H75.969l3.412 10.239c3.228.838 5.62 3.774 5.62 7.261v2.5h7.5a2.501 2.501 0 010 5.001H27.5a2.5 2.5 0 110-5.001H35v-2.5c0-3.487 2.39-6.423 5.619-7.261l3.412-10.239H10.047C4.507 75.231 0 70.724 0 65.185V10.278C0 4.739 4.507.233 10.047.233h99.906C115.493.233 120 4.739 120 10.278v54.907c0 5.539-4.507 10.046-10.047 10.046zm-67.453 15a2.502 2.502 0 00-2.5 2.5v2.5h40.001v-2.5c0-1.379-1.122-2.5-2.501-2.5h-35zm31.531-5l-3.333-10H49.302l-3.333 10h28.062zM115 15.232H20.431a2.5 2.5 0 010-5.001h94.566a5.051 5.051 0 00-5.044-4.999H10.047A5.052 5.052 0 005 10.278v47.454h94.969a2.499 2.499 0 110 5H5v2.453a5.053 5.053 0 005.047 5.047h99.906A5.053 5.053 0 00115 65.185V15.232zm-6.755 47.5h-1.057a2.5 2.5 0 110-5h1.057a2.499 2.499 0 110 5zM74.588 26.034l-3.326-.016-.479 3.785-1.6 12.624a2.489 2.489 0 01-2.637 2.171v.006l-19.063-1.269a2.494 2.494 0 01-2.292-2.06h-.003l-2.246-12.597a2.498 2.498 0 012.461-2.929v-.001h12.91a2.5 2.5 0 110 4.999h-9.927l1.38 7.739 14.771.983 1.305-10.291.757-5.972a2.488 2.488 0 012.48-2.178l5.529.027a2.49 2.49 0 01-.02 4.979zm-23.17 20.902a2.506 2.506 0 012.5 2.501 2.505 2.505 0 01-2.5 2.499 2.505 2.505 0 01-2.5-2.499 2.506 2.506 0 012.5-2.501zm12.744 0c1.377 0 2.5 1.124 2.5 2.501a2.505 2.505 0 01-2.5 2.499 2.504 2.504 0 01-2.499-2.499 2.505 2.505 0 012.499-2.501zM12.765 15.233h-1.123a2.501 2.501 0 010-5.001h1.123a2.5 2.5 0 110 5.001z"/></svg>