<svg xmlns="http://www.w3.org/2000/svg" width="20" height="20"><path fill="#0674ec" d="M19.526 19.903H.474a.417.417 0 01-.415-.418V.514c0-.231.186-.419.415-.419h19.052c.229 0 .415.188.415.419v18.971a.417.417 0 01-.415.418zm-.415-9.485h-.527a.417.417 0 01-.415-.418c0-.231.186-.419.415-.419h.527V.933h-8.696v.418a.416.416 0 11-.83 0V.933H.889v8.648h.527c.229 0 .415.188.415.419a.417.417 0 01-.415.418H.889v8.648h8.696v-.418c0-.231.186-.418.415-.418.229 0 .415.187.415.418v.418h8.696v-8.648zm-8.696.368a.416.416 0 11-.83 0v-.368h-.366A.417.417 0 018.804 10c0-.231.186-.419.415-.419h.366v-.368c0-.231.186-.418.415-.418.229 0 .415.187.415.418v.368h.365c.23 0 .416.188.416.419a.417.417 0 01-.416.418h-.365v.368zm1.926-1.205h1.561c.229 0 .415.188.415.419a.417.417 0 01-.415.418h-1.561a.417.417 0 01-.415-.418c0-.231.186-.419.415-.419zm3.122 0h1.561c.229 0 .415.188.415.419a.417.417 0 01-.415.418h-1.561a.417.417 0 01-.416-.418c0-.231.186-.419.416-.419zM10 8.059a.416.416 0 01-.415-.418V6.068c0-.231.186-.418.415-.418.229 0 .415.187.415.418v1.573a.417.417 0 01-.415.418zm0-3.145a.416.416 0 01-.415-.418V2.923c0-.231.186-.418.415-.418.229 0 .415.187.415.418v1.573a.417.417 0 01-.415.418zm-2.341 5.504H6.098A.417.417 0 015.682 10c0-.231.186-.419.416-.419h1.561c.229 0 .415.188.415.419a.417.417 0 01-.415.418zm-3.122 0H2.976A.417.417 0 012.561 10c0-.231.186-.419.415-.419h1.561c.23 0 .416.188.416.419a.417.417 0 01-.416.418zM10 11.94c.229 0 .415.187.415.418v1.573a.416.416 0 11-.83 0v-1.573c0-.231.186-.418.415-.418zm0 3.145c.229 0 .415.187.415.418v1.572a.417.417 0 01-.415.419.416.416 0 01-.415-.419v-1.572c0-.231.186-.418.415-.418z"/></svg>