<svg xmlns="http://www.w3.org/2000/svg" width="21" height="19"><path fill="#adb1b8" d="M19.723 15.636H7.511a.29.29 0 01-.293-.288.29.29 0 01.293-.287h12.212a.29.29 0 01.293.287.29.29 0 01-.293.288zm0-4.912H7.511a.29.29 0 01-.293-.288.29.29 0 01.293-.287h12.212a.29.29 0 01.293.287.29.29 0 01-.293.288zm0-1.842H7.511a.29.29 0 01-.293-.288.29.29 0 01.293-.287h12.212a.29.29 0 01.293.287.29.29 0 01-.293.288zm0-4.912H7.511a.29.29 0 01-.293-.287.29.29 0 01.293-.288h12.212a.29.29 0 01.293.288.29.29 0 01-.293.287zm0-1.841H7.511a.291.291 0 01-.293-.288.29.29 0 01.293-.288h12.212a.29.29 0 01.293.288.291.291 0 01-.293.288zM4.693 19.013H.936a.913.913 0 01-.92-.902v-3.684c0-.497.413-.901.92-.901h3.757c.508 0 .92.404.92.901v3.684a.912.912 0 01-.92.902zm.333-4.586a.33.33 0 00-.333-.326H.936a.33.33 0 00-.333.326v3.684c0 .18.15.326.333.326h3.757a.33.33 0 00.333-.326v-3.684zm-.333-2.168H.936a.912.912 0 01-.92-.901V7.674c0-.498.413-.902.92-.902h3.757c.508 0 .92.404.92.902v3.684a.911.911 0 01-.92.901zm.333-4.585a.33.33 0 00-.333-.327H.936a.33.33 0 00-.333.327v3.684c0 .179.15.326.333.326h3.757a.33.33 0 00.333-.326V7.674zm-.333-2.169H.936a.912.912 0 01-.92-.901V.92c0-.497.413-.902.92-.902h3.757c.508 0 .92.405.92.902v3.684a.911.911 0 01-.92.901zM5.026.92a.33.33 0 00-.333-.326H.936A.33.33 0 00.603.92v3.684c0 .179.15.326.333.326h3.757a.33.33 0 00.333-.326V.92zm2.485 15.982h12.212a.29.29 0 01.293.288.29.29 0 01-.293.288H7.511a.29.29 0 01-.293-.288.29.29 0 01.293-.288z"/></svg>