<svg xmlns="http://www.w3.org/2000/svg" width="13" height="17"><path fill-rule="evenodd" fill="#7347C1" d="M11.182 16.999H1.818A1.816 1.816 0 010 15.189V1.808C0 .811.816-.001 1.818-.001h6.863L13 4.281v10.908c0 .999-.816 1.81-1.818 1.81zm.677-12.279l-2.334.007a1.259 1.259 0 01-1.261-1.255v-2.37l-6.446.006a.703.703 0 00-.704.7v13.381c0 .388.316.702.704.702h9.364a.704.704 0 00.704-.702L11.859 4.72zM9.02 8.9c.816.3 1.2.722 1.2 1.371 0 .772-.597 1.427-1.866 1.427-.528 0-1.049-.137-1.31-.28l.213-.86c.281.144.713.287 1.159.287.48 0 .734-.199.734-.499 0-.287-.219-.45-.775-.649-.768-.266-1.269-.689-1.269-1.357 0-.785.659-1.386 1.749-1.386.521 0 .905.11 1.18.233l-.233.839a2.21 2.21 0 00-.968-.218c-.452 0-.672.204-.672.443 0 .293.261.423.858.649zm-4.393 1.105c-.137 0-.26-.007-.356-.02v1.644H3.235V7.091a8.55 8.55 0 011.413-.096c.645 0 1.104.123 1.413.368.295.233.494.615.494 1.066 0 .45-.151.832-.425 1.092-.357.334-.885.484-1.503.484zm.076-2.225c-.213 0-.357.02-.432.041v1.358c.089.021.199.027.35.027.555 0 .898-.279.898-.75 0-.423-.295-.676-.816-.676z"/></svg>