<svg xmlns="http://www.w3.org/2000/svg"><path fill-rule="evenodd" fill="#747a86" d="M7.333 3.338V1a1 1 0 00-1-1 .99.99 0 00-.673.267l-.43.398c-1.416 1.31-3.787 3.503-5 4.72A.86.86 0 000 6c0 .247.082.465.23.615 1.213 1.216 3.584 3.409 5 4.719l.43.398a.987.987 0 00.673.268c.552 0 1-.449 1-1V8.669c4.8.067 8 1.581 8 2.997a.333.333 0 10.667 0c0-4.491-3.858-8.165-8.667-8.328zM7 8a.334.334 0 00-.334.333V11a.333.333 0 01-.333.333.323.323 0 01-.22-.09l-.43-.398C4.27 9.538 1.906 7.351.703 6.144.685 6.126.666 6.074.666 6c0-.075.019-.127.037-.145 1.203-1.207 3.567-3.394 4.98-4.7l.43-.399a.323.323 0 01.22-.09c.184 0 .333.15.333.334v2.666c0 .184.15.334.334.334 4.008 0 7.364 2.616 8.156 6.09C13.734 8.844 10.654 8 7 8z"/></svg>