<svg xmlns="http://www.w3.org/2000/svg" width="20" height="21"><path fill-rule="evenodd" d="M13.792 14.924c-.19.187-.354.392-.496.609l-6.283-3.734c.166-.408.26-.85.26-1.314 0-.465-.094-.908-.26-1.315l6.285-3.705a3.651 3.651 0 003.066 1.654c2.005 0 3.636-1.597 3.636-3.56s-1.631-3.56-3.636-3.56-3.637 1.597-3.637 3.56c0 .447.089.874.243 1.268l-6.293 3.71a3.655 3.655 0 00-3.041-1.612C1.631 6.925 0 8.522 0 10.485c0 1.962 1.631 3.559 3.636 3.559 1.271 0 2.39-.642 3.04-1.612l6.292 3.739a3.493 3.493 0 00.824 3.787A3.666 3.666 0 0016.363 21c.932 0 1.863-.348 2.571-1.042a3.5 3.5 0 000-5.034c-1.417-1.388-3.724-1.388-5.142 0zM16.364.711c1.604 0 2.909 1.278 2.909 2.848 0 1.57-1.305 2.847-2.909 2.847-1.604 0-2.909-1.277-2.909-2.847S14.759.711 16.364.711zM3.637 13.332c-1.604 0-2.909-1.277-2.909-2.847 0-1.571 1.305-2.848 2.909-2.848 1.604 0 2.909 1.277 2.909 2.848 0 1.57-1.305 2.847-2.909 2.847zm14.783 6.123a2.956 2.956 0 01-4.113 0 2.799 2.799 0 01-.852-2.013c0-.761.302-1.477.852-2.014a2.933 2.933 0 012.057-.833c.745 0 1.489.278 2.057.833a2.8 2.8 0 01.852 2.014 2.8 2.8 0 01-.853 2.013z"/></svg>