<svg xmlns="http://www.w3.org/2000/svg" width="16" height="16"><path fill-rule="evenodd" fill="#7347C1" d="M.166 7.666a7.5 7.5 0 1015 0 7.5 7.5 0 00-15 0zm.578 0c0-1.004.216-1.956.6-2.817l3.302 9.046A6.924 6.924 0 01.744 7.666zm6.922 6.921a6.931 6.931 0 01-1.955-.281l2.077-6.034 2.128 5.829a.695.695 0 00.049.094 6.89 6.89 0 01-2.299.392zm5.595-7.051c.394-.988.527-1.777.527-2.48 0-.254-.018-.49-.048-.712.54.987.847 2.118.847 3.322a6.915 6.915 0 01-3.44 5.982l2.114-6.112zm-1.493-2.129c.263.461.571 1.054.571 1.909 0 .593-.176 1.338-.527 2.238l-.69 2.306L8.62 4.421c.418-.024.792-.066.792-.066.373-.045.328-.592-.044-.571 0 0-1.121.088-1.845.088-.68 0-1.822-.088-1.822-.088-.374-.021-.417.549-.045.571 0 0 .354.042.727.066L7.46 7.376l-1.514 4.542-2.521-7.497c.417-.024.793-.066.793-.066.373-.045.327-.592-.045-.571 0 0-1.12.088-1.845.088-.13 0-.282-.003-.445-.008A6.916 6.916 0 017.666.744a6.89 6.89 0 014.674 1.818.867.867 0 00-.089-.006c-.681 0-1.162.592-1.162 1.228 0 .571.329 1.054.679 1.623z"/></svg>